# AST/ASF file generated using VICON BodyLanguage
# -----------------------------------------------
:version 1.10
:name VICON
:units
  mass 1.0
  length 0.45
  angle deg
:documentation
   .ast/.asf automatically generated from VICON data using
   VICON BodyBuilder and BodyLanguage model FoxedUp or BRILLIANT.MOD
:root
   order TX TY TZ RX RY RZ
   axis XYZ
   position 0 0 0  
   orientation 0 0 0 
:bonedata
  begin
     id 1 
     name lhipjoint
     direction 0.54267 -0.795011 0.271047 
     length 2.39899 
     axis 0 0 0  XYZ
  end
  begin
     id 2 
     name lfemur
     direction 0.34202 -0.939693 0  
     length 7.49701  
     axis 0 0 20  XYZ
    dof rx ry rz
    limits (-160.0 20.0)
           (-70.0 70.0)
           (-60.0 70.0)
  end
  begin
     id 3 
     name ltibia
     direction 0.34202 -0.939693 0   
     length 8.1668   
     axis 0 0 20   XYZ
    dof rx
    limits (-10.0 170.0)
  end
  begin
     id 4 
     name lfoot
     direction 0.0736283 -0.202292 0.976554   
     length 2.13544   
     axis -90 7.62852e-016 20   XYZ
    dof rx rz
    limits (-45.0 90.0)
           (-70.0 20.0)
  end
  begin
     id 5 
     name ltoes
     direction 1.53557e-011 -4.22024e-011 1   
     length 1.07411   
     axis -90 7.62852e-016 20   XYZ
    dof rx
    limits (-90.0 20.0)
  end
  begin
     id 6 
     name rhipjoint
     direction -0.538061 -0.797813 0.272002   
     length 2.39057  
     axis 0 0 0  XYZ 
  end
  begin
     id 7 
     name rfemur
     direction -0.34202 -0.939693 0   
     length 7.50152   
     axis 0 0 -20   XYZ
    dof rx ry rz
    limits (-160.0 20.0)
           (-70.0 70.0)
           (-70.0 60.0)
  end
  begin
     id 8 
     name rtibia
     direction -0.34202 -0.939693 0   
     length 8.05793   
     axis 0 0 -20   XYZ
    dof rx
    limits (-10.0 170.0)
 end
 begin
     id 9 
     name rfoot
     direction -0.0765195 -0.210236 0.974652   
     length 2.28698  
     axis -90 -7.62852e-016 -20   XYZ
    dof rx rz
    limits (-45.0 90.0)
           (-20.0 70.0)
  end
  begin
     id 10 
     name rtoes
     direction -1.53542e-011 -4.21847e-011 1   
     length 1.14762   
     axis -90 -7.62852e-016 -20   XYZ
    dof rx
    limits (-90.0 20.0)
  end
  begin
     id 11 
     name lowerback
     direction -0.0217239 0.996592 -0.0795765   
     length 2.08176   
     axis 0 0 0   XYZ
    dof rx ry rz
    limits (-20.0 45.0)
           (-30.0 30.0)
           (-30.0 30.0)
  end
  begin
     id 12 
     name upperback
     direction -0.00563773 0.999651 -0.0258155   
     length 2.08898   
     axis 0 0 0   XYZ
    dof rx ry rz
    limits (-20.0 45.0)
           (-30.0 30.0)
           (-30.0 30.0)
  end
  begin
     id 13 
     name thorax
     direction 0.0032706 0.999923 0.0119599   
     length 2.0968   
     axis 0 0 0   XYZ
    dof rx ry rz
    limits (-20.0 45.0)
           (-30.0 30.0)
           (-30.0 30.0)
  end
  begin
     id 14 
     name lowerneck
     direction -0.0285886 0.99568 0.0883427   
     length 1.81272   
     axis 0 0 0   XYZ
    dof rx ry rz
    limits (-20.0 45.0)
           (-30.0 30.0)
           (-30.0 30.0)
  end
  begin
     id 15 
     name upperneck
     direction 0.0807535 0.97985 -0.18268   
     length 1.82518   
     axis 0 0 0   XYZ
    dof rx ry rz
    limits (-20.0 45.0)
           (-30.0 30.0)
           (-30.0 30.0)
  end
  begin
     id 16
     name head
     direction 0.0236605 0.997053 -0.0729767  
     length 1.84443  
     axis 0 0 0   XYZ
    dof rx ry rz
    limits (-20.0 45.0)
           (-30.0 30.0)
           (-30.0 30.0)
  end
  begin
     id 17 
     name lclavicle
     direction 0.918986 0.39378 -0.0200683  
     length 3.27822  
     axis 0 0 0   XYZ
    dof ry rz
    limits (-20.0 10.0)
           (0.0 20.0)
  end
  begin
     id 18 
     name lhumerus
     direction 1 -4.4897e-011 2.09544e-027   
     length 5.5568   
     axis 180 -30 -90   XYZ
    dof rx ry rz
    limits (-60.0 90.0)
           (-90.0 90.0)
           (-90.0 90.0)
  end
  begin
     id 19
     name lradius
     direction 1 -4.48957e-011 -1.27696e-026   
     length 3.63979   
     axis 180 -30 -90   XYZ
    dof rx
    limits (-10.0 170.0)
  end
  begin
     id 20
     name lwrist
     direction 1 -4.49001e-011 -1.49001e-026   
     length 1.8199   
     axis 9.0955e-015 90 90   XYZ
    dof ry
    limits (-180.0 0.0)
 end
  begin
     id 21 
     name lhand
     direction 1 -4.48709e-011 -2.9758e-026   
     length 0.569419   
     axis 1.90115e-014 90 90   XYZ
    dof rx rz
    limits (-90.0 90.0)
           (-45.0 45.0)
  end
  begin
     id 22 
     name lfingers
     direction 1 -4.49175e-011 -5.96505e-026   
     length 0.45908   
     axis 3.80223e-014 90 90   XYZ
    dof rx
    limits (0.0 90.0)
  end
  begin
     id 23
     name lthumb
     direction 0.707107 -6.34864e-011 0.707107   
     length 0.65915   
     axis -90 45 -3.84942e-014   XYZ
    dof rx rz
    limits (-45.0 45.0)
           (-45.0 45.0)
  end
  begin
     id 24 
     name rclavicle
     direction -0.911913 0.396426 -0.106115   
     length 3.46301  
     axis 0 0 0   XYZ 
    dof ry rz
    limits (-10.0 20.0)
           (-20.0 0.0)
  end
  begin
     id 25 
     name rhumerus
     direction -1 -4.48965e-011 7.78516e-028  
     length 5.34339   
     axis 180 30 90   XYZ
    dof rx ry rz
    limits (-90.0 60.0)
           (-90.0 90.0)
           (-90.0 90.0)
  end
  begin
     id 26 
     name rradius
     direction -1 -4.48948e-011 -5.79823e-027   
     length 3.65101   
     axis 180 30 90   XYZ
    dof rx
    limits (-10.0 170.0)
  end
  begin
     id 27 
     name rwrist
     direction -1 -4.48995e-011 -1.48996e-026   
     length 1.8255   
     axis 9.0955e-015 -90 -90   XYZ
    dof ry
    limits (-180.0 0.0)
  end
  begin
     id 28
     name rhand
     direction -1 -4.48957e-011 -2.97937e-026   
     length 0.694249   
     axis 1.90115e-014 -90 -90   XYZ
    dof rx rz
    limits (-90.0 90.0)
           (-45.0 45.0)
  end
  begin
     id 29
     name rfingers
     direction -1 -4.4898e-011 -5.95943e-026   
     length 0.559721   
     axis 3.80223e-014 -90 -90   XYZ
    dof rx
    limits (0.0 90.0)
  end
  begin
     id 30
     name rthumb
     direction -0.707107 -6.34969e-011 0.707107   
     length 0.803651   
     axis -90 -45 3.84942e-014   XYZ
    dof rx rz
    limits (-45.0 45.0)
           (-45.0 45.0)
  end
:hierarchy
  begin
    root lhipjoint rhipjoint lowerback
    lhipjoint lfemur
    lfemur ltibia
    ltibia lfoot
    lfoot ltoes
    rhipjoint rfemur
    rfemur rtibia
    rtibia rfoot
    rfoot rtoes
    lowerback upperback
    upperback thorax
    thorax lowerneck lclavicle rclavicle
    lowerneck upperneck
    upperneck head
    lclavicle lhumerus
    lhumerus lradius
    lradius lwrist
    lwrist lhand lthumb
    lhand lfingers
    rclavicle rhumerus
    rhumerus rradius
    rradius rwrist
    rwrist rhand rthumb
    rhand rfingers
  end

#!OML:ASF H:\Terrain\Walking\May29\JustinRory\rory.ASF
:FULLY-SPECIFIED
:DEGREES
286
root 16.323 18.277 -15.5573 -9.21898 -63.2468 12.5784
lowerback -0.644724 0.457867 -4.29716
upperback -0.191335 0.63571 0.0601479
thorax 0.117602 0.31755 2.47492
lowerneck -9.88273 4.02896 1.47778
upperneck 16.5231 5.01013 0.875752
head 6.67694 2.54303 0.464941
rclavicle 1.39149e-015 -6.36111e-015
rhumerus -37.4449 -30.7312 -65.165
rradius 17.0667
rwrist 10.5597
rhand -29.7316 36.6896
rfingers 7.12502
rthumb -3.05822 6.73181
lclavicle 1.39149e-015 -6.36111e-015
lhumerus -45.433 29.5207 67.2678
lradius 39.8698
lwrist 175.96
lhand -23.0528 -19.9135
lfingers 7.12502
lthumb 3.39214 10.0393
rfemur -8.10566 -4.53779 8.66114
rtibia 29.1547
rfoot -15.2006 -21.033
rtoes 19.1123
lfemur -7.84222 -3.60062 -24.216
ltibia 21.1077
lfoot -17.0829 12.8924
ltoes 4.2267
287
root 16.331 18.2759 -15.6207 -10.1365 -64.4652 13.4307
lowerback -0.58259 0.51737 -4.26897
upperback -0.346857 0.707823 0.075677
thorax -0.0822126 0.360228 2.47381
lowerneck -10.0792 3.91806 1.80789
upperneck 17.3107 4.84012 0.570788
head 6.98156 2.44968 0.313894
rclavicle -2.27981e-014 -1.11319e-014
rhumerus -37.6901 -28.3868 -66.0298
rradius 18.132
rwrist 7.81685
rhand -30.105 36.0573
rfingers 7.12502
rthumb -3.41888 6.10497
lclavicle -2.27981e-014 -1.11319e-014
lhumerus -45.2063 28.0831 67.4417
lradius 39.6857
lwrist 177.518
lhand -22.2343 -19.004
lfingers 7.12502
lthumb 4.18249 10.9347
rfemur -7.53863 -5.06543 8.35626
rtibia 28.7806
rfoot -15.4065 -22.1802
rtoes 21.6842
lfemur -7.6497 -3.52664 -24.2254
ltibia 20.9811
lfoot -17.3949 13.8608
ltoes 4.09099
288
root 16.3347 18.278 -15.6868 -10.2734 -65.7552 13.5099
lowerback -0.290338 0.56783 -3.84926
upperback -0.779194 0.751755 0.276146
thorax -0.690333 0.399952 2.43836
lowerneck -9.83162 3.74364 1.8407
upperneck 18.2348 4.68063 0.0430405
head 7.25051 2.31898 0.129312
rclavicle -4.15864e-014 -2.38542e-015
rhumerus -38.3828 -26.4576 -66.1367
rradius 18.9375
rwrist 6.57272
rhand -30.0575 35.2365
rfingers 7.12502
rthumb -3.37296 5.2834
lclavicle -4.15864e-014 -2.38542e-015
lhumerus -46.7355 28.4066 67.2571
lradius 40.5119
lwrist 177.188
lhand -22.1521 -18.6611
lfingers 7.12502
lthumb 4.26194 11.276
rfemur -7.10902 -5.72056 8.48985
rtibia 28.4177
rfoot -15.1811 -23.6876
rtoes 21.8417
lfemur -7.51336 -3.37196 -23.8037
ltibia 20.799
lfoot -17.7015 14.6636
ltoes 5.59983
289
root 16.3427 18.2768 -15.7523 -10.6422 -67.0968 13.979
lowerback -0.882843 0.77509 -3.0202
upperback -0.604042 1.052 0.266663
thorax -0.183754 0.535231 1.97274
lowerneck -9.214 3.32876 -0.0191408
upperneck 17.3661 4.1834 1.40802
head 6.77983 2.08165 0.804004
rclavicle -2.60967e-014 1.59028e-014
rhumerus -38.2485 -25.9258 -66.0628
rradius 19.367
rwrist 6.23972
rhand -29.6565 35.4388
rfingers 7.12502
rthumb -2.98573 5.47991
lclavicle -2.60967e-014 1.59028e-014
lhumerus -45.6377 28.7453 67.7469
lradius 40.0762
lwrist 176.684
lhand -22.9539 -19.3902
lfingers 7.12502
lthumb 3.48761 10.561
rfemur -6.92875 -6.42279 8.47204
rtibia 28.1483
rfoot -15.3946 -24.9485
rtoes 21.8049
lfemur -7.46312 -3.42737 -23.5285
ltibia 20.5269
lfoot -18.1873 15.709
ltoes 6.51755
290
root 16.3506 18.2754 -15.8245 -12.2833 -68.4946 15.9248
lowerback -1.28523 0.829805 -3.32791
upperback -0.591828 1.14155 0.52493
thorax 0.0376197 0.577471 2.4179
lowerneck -11.1094 3.11886 -0.793015
upperneck 19.0264 4.02319 1.43639
head 7.6391 1.94102 0.987617
rclavicle -1.84497e-015 -1.35174e-014
rhumerus -37.8562 -24.4807 -65.9415
rradius 19.7592
rwrist 5.84776
rhand -29.6688 36.2304
rfingers 7.12502
rthumb -2.99763 6.27171
lclavicle -1.84497e-015 -1.35174e-014
lhumerus -43.0216 30.6697 67.9703
lradius 37.3505
lwrist 175.312
lhand -22.6169 -20.1177
lfingers 7.12502
lthumb 3.81305 9.82792
rfemur -6.97445 -6.9542 7.92885
rtibia 27.8954
rfoot -16.4159 -25.9801
rtoes 24.7501
lfemur -7.51434 -3.71801 -23.8002
ltibia 20.265
lfoot -18.9743 17.1002
ltoes 6.8503
291
root 16.3595 18.2805 -15.9042 -14.1323 -69.7974 18.2198
lowerback -3.47019 0.93532 -3.24928
upperback 0.679181 1.38501 0.220739
thorax 2.56253 0.639696 2.12614
lowerneck -12.7028 2.71926 -1.54735
upperneck 19.1617 3.55423 1.94097
head 7.9503 1.7172 1.26423
rclavicle 3.18055e-014 -2.38542e-015
rhumerus -35.7305 -25.0147 -66.9867
rradius 19.9176
rwrist 6.30148
rhand -30.0669 36.9967
rfingers 7.12502
rthumb -3.38209 7.04374
lclavicle 3.18055e-014 -2.38542e-015
lhumerus -41.0121 30.8936 68.8941
lradius 37.419
lwrist 175.727
lhand -20.5483 -20.9186
lfingers 7.12502
lthumb 5.81045 8.98176
rfemur -7.24654 -7.51874 7.41362
rtibia 27.6333
rfoot -17.1407 -27.3971
rtoes 27.2282
lfemur -7.75493 -3.69117 -24.0714
ltibia 20.0049
lfoot -19.6487 18.1259
ltoes 7.77251
292
root 16.379 18.2914 -15.9801 -14.2266 -71.2116 18.3833
lowerback -4.06121 1.07409 -2.42922
upperback 1.01035 1.55571 0.180726
thorax 3.24834 0.724801 1.65331
lowerneck -12.8329 2.20921 -1.48942
upperneck 18.9064 2.86919 1.81473
head 7.9059 1.3863 1.14109
rclavicle 8.99998e-014 -8.74653e-015
rhumerus -35.1678 -24.7754 -67.425
rradius 20.2244
rwrist 6.51993
rhand -30.1137 37.6761
rfingers 7.12502
rthumb -3.42722 7.72393
lclavicle 8.99998e-014 -8.74653e-015
lhumerus -42.633 29.4902 69.2519
lradius 39.7173
lwrist 177.046
lhand -18.6106 -21.5127
lfingers 7.12502
lthumb 7.68103 8.32776
rfemur -7.27958 -7.89866 7.78667
rtibia 27.3975
rfoot -17.9216 -28.7522
rtoes 28.5563
lfemur -7.73763 -3.66857 -23.4497
ltibia 19.6991
lfoot -20.1536 18.963
ltoes 9.02826
